<?xml version="1.0" encoding="UTF-8"?>
<svg xmlns="http://www.w3.org/2000/svg" viewBox="0 0 256 256" width="256" height="256">
<path d="M0.08 0.08C85.36 0.08 170.64 0.08 255.92 0.08C255.92 85.36 255.92 170.64 255.92 255.92C170.64 255.92 85.36 255.92 0.08 255.92C0.08 170.64 0.08 85.36 0.08 0.08ZM97.95 42.57C85 42.57 72.06 42.57 59.11 42.57C59.11 99.57 59.11 156.56 59.11 213.56C72.06 213.56 85 213.56 97.95 213.56C97.95 185.55 97.95 157.54 97.95 129.53C102.04 132.07 108.77 143.28 112.18 147.66C123.9 162.75 135.16 178.21 146.81 193.36C150.53 198.2 154.17 203.11 157.83 208C158.96 209.5 160.55 212.78 162.37 213.45C165.39 214.55 173.01 213.56 176.5 213.56C187.09 213.56 197.97 214.28 208.53 213.5C208.19 211.09 205.67 208.84 204.23 206.94C200.58 202.15 196.93 197.35 193.27 192.57C183.33 179.6 173.53 166.53 163.69 153.49C159.53 147.98 150.47 138.27 147.9 132.5C149.42 130.58 151.75 129.36 153.61 127.77C158.25 123.8 162.77 119.59 166.79 114.96C180.03 99.7 189.5 80.76 192.16 60.63C192.86 55.37 194.69 48.43 193.49 43.17C191.34 41.74 187.05 42.56 184.5 42.56C178.06 42.56 171.61 42.56 165.17 42.56C162.57 42.56 158.86 41.89 156.5 43.03C155.64 45.63 156.13 48.88 155.83 51.63C155.32 56.21 154.21 60.96 152.83 65.35C146.47 85.6 132.04 102.41 115.42 115.26C112.36 117.62 100.98 126.82 97.95 127.17C97.95 98.97 97.95 70.77 97.95 42.57Z" fill="#ffa8cd" fill-rule="evenodd" stroke="#ffa8cd" stroke-width="0.25" stroke-linejoin="round"/>
<path d="M97.95 42.57C97.95 70.77 97.95 98.97 97.95 127.17C100.98 126.82 112.36 117.62 115.42 115.26C132.04 102.41 146.47 85.6 152.83 65.35C154.21 60.96 155.32 56.21 155.83 51.63C156.13 48.88 155.64 45.63 156.5 43.03C158.86 41.89 162.57 42.56 165.17 42.56C171.61 42.56 178.06 42.56 184.5 42.56C187.05 42.56 191.34 41.74 193.49 43.17C194.69 48.43 192.86 55.37 192.16 60.63C189.5 80.76 180.03 99.7 166.79 114.96C162.77 119.59 158.25 123.8 153.61 127.77C151.75 129.36 149.42 130.58 147.9 132.5C150.47 138.27 159.53 147.98 163.69 153.49C173.53 166.53 183.33 179.6 193.27 192.57C196.93 197.35 200.58 202.15 204.23 206.94C205.67 208.84 208.19 211.09 208.53 213.5C197.97 214.28 187.09 213.56 176.5 213.56C173.01 213.56 165.39 214.55 162.37 213.45C160.55 212.78 158.96 209.5 157.83 208C154.17 203.11 150.53 198.2 146.81 193.36C135.16 178.21 123.9 162.75 112.18 147.66C108.77 143.28 102.04 132.07 97.95 129.53C97.95 157.54 97.95 185.55 97.95 213.56C85 213.56 72.06 213.56 59.11 213.56C59.11 156.56 59.11 99.57 59.11 42.57C72.06 42.57 85 42.57 97.95 42.57Z" fill="#0b051d" fill-rule="evenodd" stroke="#0b051d" stroke-width="0.25" stroke-linejoin="round"/>
</svg>