<svg width="14" height="11" viewBox="0 0 14 11" fill="none" xmlns="http://www.w3.org/2000/svg">
<path d="M9.89072 2.69196C9.71111 2.52697 9.42618 2.54219 9.26179 2.73701C9.0968 2.91662 9.11202 3.20155 9.30684 3.36594C9.86088 3.8451 10.1756 4.54891 10.1756 5.28319C10.1756 6.01684 9.86088 6.70603 9.30684 7.20043C9.12723 7.36542 9.09739 7.64975 9.26179 7.82936C9.35189 7.93409 9.47123 7.97913 9.59117 7.97913C9.69589 7.97913 9.80061 7.9493 9.89072 7.8592C10.6244 7.20044 11.0591 6.25678 11.0591 5.28325C11.0585 4.30973 10.6396 3.33614 9.89072 2.69196Z" fill="#BABFE7"/>
<path d="M11.5543 1.62853C11.3747 1.46354 11.0898 1.47876 10.9254 1.65837C10.7604 1.83798 10.7756 2.1229 10.9552 2.2873C11.7942 3.05138 12.2734 4.14418 12.2734 5.26748C12.2734 6.39078 11.7942 7.48427 10.9552 8.24767C10.7756 8.41266 10.7604 8.69699 10.9254 8.8766C11.0155 8.96669 11.1348 9.02637 11.2548 9.02637C11.3595 9.02637 11.4794 8.98132 11.5543 8.90643C12.5729 7.97796 13.1568 6.64456 13.1568 5.2668C13.1568 3.89017 12.5729 2.5568 11.5543 1.62836V1.62853Z" fill="#BABFE7"/>
<path d="M8.10876 0.100922C7.86888 -0.0336405 7.58455 -0.0336405 7.35989 0.100922L3.18152 2.5569H1.35444C0.695673 2.5569 0.15625 3.09633 0.15625 3.75509V6.79563C0.15625 7.4544 0.695673 7.99382 1.35444 7.99382H3.18152L7.34536 10.4353C7.4653 10.5102 7.59986 10.54 7.7198 10.54C7.85436 10.54 7.97429 10.5102 8.09423 10.4353C8.33411 10.3007 8.46866 10.0456 8.46866 9.79113V0.745126C8.48329 0.475415 8.33341 0.235493 8.10876 0.100922ZM1.05474 6.7811V3.75524C1.05474 3.59025 1.1893 3.45569 1.35429 3.45569H2.85202V7.09533H1.35429C1.1893 7.0807 1.05474 6.96072 1.05474 6.7811ZM7.58455 9.5215L3.76533 7.27491V3.24631L7.58455 0.99971V9.5215Z" fill="#BABFE7"/>
</svg>
