<svg width="18" height="16" viewBox="0 0 18 16" fill="none" xmlns="http://www.w3.org/2000/svg">
<path d="M13.4095 4.78319C13.1573 4.55151 12.7572 4.57288 12.5264 4.84645C12.2947 5.09866 12.316 5.49875 12.5896 5.72959C13.3676 6.40243 13.8096 7.39073 13.8096 8.4218C13.8096 9.452 13.3676 10.4198 12.5896 11.114C12.3374 11.3457 12.2955 11.7449 12.5264 11.9972C12.6529 12.1442 12.8205 12.2075 12.9889 12.2075C13.1359 12.2075 13.283 12.1656 13.4095 12.0391C14.4397 11.114 15.0501 9.78892 15.0501 8.42189C15.0493 7.05486 14.4611 5.68775 13.4095 4.78319Z" fill="#E0E3FF"/>
<path d="M15.7495 3.28873C15.4973 3.05705 15.0972 3.07841 14.8664 3.33062C14.6347 3.58283 14.6561 3.98293 14.9083 4.21377C16.0863 5.2867 16.7592 6.82122 16.7592 8.39856C16.7592 9.97591 16.0863 11.5114 14.9083 12.5834C14.6561 12.815 14.6347 13.2143 14.8664 13.4665C14.9929 13.593 15.1605 13.6768 15.3289 13.6768C15.4759 13.6768 15.6443 13.6136 15.7495 13.5084C17.1798 12.2046 17.9996 10.3323 17.9996 8.3976C17.9996 6.46454 17.1798 4.59221 15.7495 3.28848V3.28873Z" fill="#E0E3FF"/>
<path d="M0 6.50835C0 5.40213 0.896763 4.50537 2.00298 4.50537H3.30491C3.41553 4.50537 3.50521 4.59505 3.50521 4.70567V11.8162C3.50521 11.9269 3.41553 12.0165 3.30491 12.0165H2.00298C0.896763 12.0165 0 11.1198 0 10.0136V6.50835Z" fill="#E0E3FF"/>
<path d="M4.50586 4.61486C4.50586 4.54671 4.54051 4.48323 4.59784 4.44637L9.97322 0.990774C10.6397 0.562309 11.5163 1.04086 11.5163 1.8332V14.689C11.5163 15.4813 10.6397 15.9599 9.97322 15.5314L4.59784 12.0758C4.54051 12.0389 4.50586 11.9755 4.50586 11.9073V4.61486Z" fill="#E0E3FF"/>
</svg>
