<svg width="14" height="10" viewBox="0 0 14 10" fill="none" xmlns="http://www.w3.org/2000/svg">
<path d="M10.5637 2.20062C10.3744 2.02263 10.0742 2.03904 9.90092 2.24922C9.72704 2.44298 9.74307 2.75037 9.94839 2.92772C10.5323 3.44464 10.864 4.20393 10.864 4.99608C10.864 5.78756 10.5323 6.53108 9.94839 7.06445C9.75911 7.24245 9.72766 7.54919 9.90092 7.74295C9.99587 7.85593 10.1216 7.90453 10.248 7.90453C10.3584 7.90453 10.4688 7.87234 10.5637 7.77514C11.3369 7.06445 11.795 6.04641 11.795 4.99615C11.7944 3.94589 11.3529 2.89557 10.5637 2.20062Z" fill="#6F58DE"/>
<path d="M12.3112 1.05223C12.122 0.874233 11.8217 0.89065 11.6484 1.08442C11.4745 1.27818 11.4906 1.58557 11.6799 1.76292C12.564 2.58723 13.069 3.76617 13.069 4.97801C13.069 6.18984 12.564 7.36953 11.6799 8.19309C11.4906 8.37109 11.4745 8.67783 11.6484 8.87159C11.7434 8.96879 11.8692 9.03317 11.9956 9.03317C12.1059 9.03317 12.2323 8.98457 12.3112 8.90378C13.3847 7.90213 14 6.46363 14 4.97727C14 3.49213 13.3847 2.05385 12.3112 1.05223Z" fill="#6F58DE"/>
<path d="M0 3.55211C0 3.01901 0.422171 2.58685 0.942944 2.58685H2.35736V7.41315H0.942944C0.422171 7.41315 0 6.98099 0 6.44789V3.55211Z" fill="#6F58DE"/>
<path d="M3.30031 2.58685L7.03731 0.152474C7.66505 -0.256452 8.4865 0.205148 8.4865 0.966826V9.03317C8.4865 9.79485 7.66505 10.2565 7.03731 9.84753L3.30031 7.41315V2.58685Z" fill="#6F58DE"/>
</svg>
