<svg width="16" height="13" viewBox="0 0 16 13" fill="none" xmlns="http://www.w3.org/2000/svg">
<path fill-rule="evenodd" clip-rule="evenodd" d="M14.8763 6.92618L9.91149 12.1185C9.5549 12.4914 8.97479 12.4958 8.61534 12.1199C8.26392 11.7524 8.26437 11.1595 8.61667 10.7911L12.1055 7.14285L1.71326 7.14302C1.2022 7.14302 0.800781 6.7163 0.800781 6.19939C0.800781 5.68608 1.20341 5.25645 1.71326 5.25645H12.1055L8.61667 1.6082C8.2647 1.24015 8.26159 0.649299 8.61534 0.279386C8.97237 -0.0939565 9.55434 -0.0924746 9.91131 0.279911L14.9354 5.53418L14.9367 5.53557C15.1133 5.72021 15.1999 5.96085 15.2008 6.1986C15.2008 6.43608 15.1147 6.67763 14.9367 6.86371L14.8763 6.92618Z" fill="white"/>
</svg>
