<svg width="22" height="22" viewBox="0 0 22 22" fill="none" xmlns="http://www.w3.org/2000/svg">
<path d="M5.60997 18.2963C7.91741 19.9964 10.8967 20.5061 13.6416 19.6707C16.3862 18.8361 18.5701 16.7547 19.5277 14.0616C20.4853 11.3685 20.103 8.38342 18.4972 6.01617C16.8913 3.64805 14.2525 2.17895 11.3849 2.05593C11.0609 2.04203 10.7384 2.0455 10.4185 2.06581C8.18005 2.20789 6.07086 3.17395 4.50509 4.77728H7.3063C7.84291 4.77728 8.27868 5.21102 8.27868 5.74511C8.27868 6.2805 7.84252 6.71293 7.3063 6.71293H1.53416V0.967826C1.53416 0.434122 1.96863 0 2.50654 0C3.04314 0 3.47892 0.433738 3.47892 0.967826V3.06553C5.50607 1.16873 8.19416 0.101499 10.9999 0.103156C13.9168 0.103218 16.715 1.25676 18.7779 3.31001C20.8409 5.36322 22 8.14819 22 11.0515C22 17.0145 16.9911 22 11 22C8.08203 22 5.285 20.8463 3.22205 18.793C1.15914 16.7399 0 13.9558 0 11.0515C0 10.5174 0.43578 10.0837 0.972381 10.0837C1.51029 10.0837 1.94476 10.5179 1.94476 11.0516C1.94408 13.9086 3.30349 16.5963 5.60997 18.2963Z" fill="#494B6D"/>
</svg>
