<svg width="38" height="30" viewBox="0 0 38 30" fill="none" xmlns="http://www.w3.org/2000/svg">
<path fill-rule="evenodd" clip-rule="evenodd" d="M9.79722 9C9.09356 9 8.49805 9.583 8.49805 10.3333V19.6667C8.49805 20.417 9.09356 21 9.79722 21H21.2931C21.9968 21 22.5923 20.417 22.5923 19.6667V10.3333C22.5923 9.583 21.9968 9 21.2931 9H9.79722ZM29.2747 10.9702L25.826 12.8548C25.7791 12.8805 25.7419 12.9358 25.7419 13.0045V16.9955C25.7419 17.0642 25.7791 17.1195 25.826 17.1452L29.2747 19.0298C29.305 19.0463 29.3269 19.0489 29.3435 19.0483C29.363 19.0475 29.3869 19.0413 29.4113 19.0265C29.4357 19.0117 29.4552 18.9916 29.4681 18.9693C29.4797 18.9494 29.4898 18.9218 29.4898 18.8801V11.1199C29.4898 11.0782 29.4797 11.0506 29.4681 11.0307C29.4552 11.0084 29.4357 10.9883 29.4113 10.9735C29.3869 10.9587 29.363 10.9525 29.3435 10.9517C29.3269 10.9511 29.305 10.9537 29.2747 10.9702ZM7.49805 10.3333C7.49805 9.04467 8.52742 8 9.79722 8H21.2931C22.5629 8 23.5923 9.04467 23.5923 10.3333V19.6667C23.5923 20.9553 22.5629 22 21.2931 22H9.79722C8.52742 22 7.49805 20.9553 7.49805 19.6667V10.3333ZM25.3464 11.9773C24.9741 12.1808 24.7419 12.5753 24.7419 13.0045V16.9955C24.7419 17.4247 24.9741 17.8192 25.3464 18.0227L28.7952 19.9073C29.5611 20.3258 30.4898 19.7629 30.4898 18.8801V11.1199C30.4898 10.2371 29.5611 9.67418 28.7952 10.0927L25.3464 11.9773Z" fill="#8B77ED"/>
<path fill-rule="evenodd" clip-rule="evenodd" d="M15.0317 12.6697L17.2663 13.8769V13.8769C17.6549 14.0868 17.9518 14.4948 17.9518 15C17.9518 15.5052 17.6551 15.913 17.2665 16.1229V16.1229L15.0317 17.3303C14.6174 17.5539 14.1529 17.5405 13.7882 17.3823C13.4308 17.2273 12.9957 16.8372 12.9957 16.2074V13.7926C12.9957 13.1627 13.4309 12.7726 13.7883 12.6176C14.1529 12.4595 14.6173 12.4461 15.0317 12.6697ZM16.7912 15.2431C17.0053 15.1275 17.0053 14.8725 16.7912 14.7569L14.5564 13.5495C14.3166 13.4201 13.9957 13.5594 13.9957 13.7926V16.2074C13.9957 16.4406 14.3166 16.5799 14.5564 16.4505L16.7912 15.2431Z" fill="#8B77ED"/>
<path fill-rule="evenodd" clip-rule="evenodd" d="M33.9895 1H27.7918V0H33.9895C35.9218 0 37.4883 1.567 37.4883 3.5V9H36.4886V3.5C36.4886 2.11929 35.3697 1 33.9895 1Z" fill="#C8CCFF"/>
<path fill-rule="evenodd" clip-rule="evenodd" d="M3.99874 1H10.1965V0H3.99874C2.06644 0 0.5 1.567 0.5 3.5V9H1.49964V3.5C1.49964 2.11929 2.61853 1 3.99874 1Z" fill="#C8CCFF"/>
<path fill-rule="evenodd" clip-rule="evenodd" d="M34.0013 29H27.8035V30H34.0013C35.9336 30 37.5 28.433 37.5 26.5V21H36.5004V26.5C36.5004 27.8807 35.3815 29 34.0013 29Z" fill="#C8CCFF"/>
<path fill-rule="evenodd" clip-rule="evenodd" d="M4.01203 29H10.2098V30H4.01203C2.07973 30 0.513288 28.433 0.513288 26.5V21H1.51293V26.5C1.51293 27.8807 2.63181 29 4.01203 29Z" fill="#C8CCFF"/>
</svg>
