<svg width="38" height="30" viewBox="0 0 38 30" fill="none" xmlns="http://www.w3.org/2000/svg">
<path fill-rule="evenodd" clip-rule="evenodd" d="M33.9895 1H27.7918V0H33.9895C35.9218 0 37.4883 1.567 37.4883 3.5V9H36.4886V3.5C36.4886 2.11929 35.3697 1 33.9895 1Z" fill="#C8CCFF"/>
<path fill-rule="evenodd" clip-rule="evenodd" d="M3.99874 1H10.1965V0H3.99874C2.06644 0 0.5 1.567 0.5 3.5V9H1.49964V3.5C1.49964 2.11929 2.61853 1 3.99874 1Z" fill="#C8CCFF"/>
<path fill-rule="evenodd" clip-rule="evenodd" d="M34.0013 29H27.8035V30H34.0013C35.9336 30 37.5 28.433 37.5 26.5V21H36.5004V26.5C36.5004 27.8807 35.3815 29 34.0013 29Z" fill="#C8CCFF"/>
<path fill-rule="evenodd" clip-rule="evenodd" d="M4.01203 29H10.2098V30H4.01203C2.07973 30 0.513288 28.433 0.513288 26.5V21H1.51293V26.5C1.51293 27.8807 2.63181 29 4.01203 29Z" fill="#C8CCFF"/>
<path d="M9.91367 7C9.14622 7 8.51367 7.63786 8.51367 8.41176V21.5882C8.51367 22.3621 9.14622 23 9.91367 23H28.1137C28.8811 23 29.5137 22.3621 29.5137 21.5882V8.41176C29.5137 7.63786 28.8811 7 28.1137 7H9.91367ZM9.91367 7.94118H28.1137C28.3798 7.94118 28.5803 8.14338 28.5803 8.41176V18.2574L24.672 15.1031C24.518 14.9781 24.2819 14.9689 24.1178 15.081L20.6689 17.4706L16.0387 13.6914C15.9421 13.6114 15.8126 13.5737 15.6887 13.5884C15.6158 13.5985 15.5447 13.627 15.4845 13.6693L9.44701 17.8679V8.41188C9.44701 8.14351 9.64753 7.94118 9.91367 7.94118ZM20.647 10.2941C19.6216 10.2941 18.7803 11.1425 18.7803 12.1765C18.7803 13.2105 19.6216 14.0588 20.647 14.0588C21.6724 14.0588 22.5137 13.2105 22.5137 12.1765C22.5137 11.1425 21.6724 10.2941 20.647 10.2941ZM20.647 11.2353C21.1684 11.2353 21.5803 11.6507 21.5803 12.1765C21.5803 12.7022 21.1684 13.1176 20.647 13.1176C20.1256 13.1176 19.7137 12.7022 19.7137 12.1765C19.7137 11.6507 20.1256 11.2353 20.647 11.2353ZM15.7251 14.6398L20.3553 18.4191C20.5094 18.5441 20.7454 18.5532 20.9095 18.4411L24.3512 16.0515L28.5803 19.4632V21.5882C28.5803 21.8575 28.3798 22.0588 28.1137 22.0588H9.91367C9.64753 22.0588 9.44701 21.8575 9.44701 21.5882V19.0073L15.7251 14.6398Z" fill="#8B77ED"/>
</svg>
