<svg width="20" height="12" viewBox="0 0 20 12" fill="none" xmlns="http://www.w3.org/2000/svg">
<path fill-rule="evenodd" clip-rule="evenodd" d="M2 0C0.895431 0 0 0.895431 0 2V10C0 11.1046 0.89543 12 2 12H12C13.1046 12 14 11.1046 14 10V2C14 0.895431 13.1046 0 12 0H2ZM9.28269 6.32414C9.57244 6.16999 9.57244 5.82998 9.28269 5.67581L6.25871 4.06602C5.93425 3.89352 5.5 4.07915 5.5 4.39019V7.60981C5.5 7.92085 5.93422 8.10648 6.25871 7.93398L9.28269 6.32414Z" fill="#E0E3FF"/>
<path d="M15 4.2896C15 3.92172 15.202 3.58354 15.5259 3.40913L18.5259 1.79375C19.1921 1.43501 20 1.91754 20 2.67422V9.32578C20 10.0825 19.1921 10.565 18.5259 10.2063L15.5259 8.59087C15.202 8.41646 15 8.07828 15 7.7104V4.2896Z" fill="#E0E3FF"/>
</svg>
